
<svg version="1.0" xmlns="http://www.w3.org/2000/svg"
 width="736" height="520" viewBox="0 0 736.000000 520.000000"
 preserveAspectRatio="xMidYMid meet">

<g transform="translate(0.000000,520.000000) scale(0.100000,-0.100000)"
fill="#000000" stroke="none">
<path d="M2970 4129 c-139 -36 -255 -88 -365 -162 -87 -59 -225 -197 -285
-283 -91 -132 -164 -309 -190 -463 -4 -26 -8 113 -9 327 0 213 -5 372 -10 372
-5 0 -47 -38 -94 -84 -141 -140 -240 -310 -294 -501 -20 -73 -26 -120 -30
-249 -8 -231 21 -368 118 -556 61 -120 127 -206 226 -301 l78 -74 3 380 c4
348 5 374 17 308 49 -272 205 -526 425 -692 140 -105 350 -194 508 -216 l52
-7 0 449 0 449 28 10 c15 6 403 218 862 471 459 253 981 540 1160 638 179 98
334 184 345 192 16 11 -183 13 -1225 12 -1203 0 -1248 -1 -1320 -20z"/>
<path d="M4240 2822 l0 -447 -97 -54 c-90 -49 -318 -174 -1813 -990 l-515
-281 1265 2 1265 3 90 28 c413 128 715 463 789 874 13 74 14 58 15 -299 1
-208 5 -378 9 -378 16 0 151 140 205 211 100 133 167 284 201 453 21 99 21
330 1 428 -49 232 -156 428 -323 589 l-87 84 -5 -380 c-3 -209 -6 -366 -8
-349 -4 58 -45 199 -81 284 -143 334 -444 579 -804 655 -120 26 -107 80 -107
-433z"/>
</g>
</svg>
