<svg width="134" height="32" viewBox="0 0 67 16" fill="currentColor" xmlns="http://www.w3.org/2000/svg">
<path d="M4.17718 3.65549C3.72294 3.75776 3.34387 3.90547 2.98441 4.11568C2.7001 4.28328 2.24914 4.6753 2.05307 4.9196C1.75569 5.29457 1.51714 5.79737 1.43217 6.23484C1.4191 6.3087 1.40603 5.91384 1.40276 5.30593C1.40276 4.70087 1.38642 4.2492 1.37008 4.2492C1.35375 4.2492 1.21649 4.35714 1.06291 4.48781C0.602138 4.88551 0.27862 5.36843 0.102155 5.911C0.036798 6.11837 0.0171908 6.25188 0.00411937 6.61833C-0.0220235 7.27453 0.0727444 7.66371 0.389727 8.19776C0.589066 8.53864 0.804745 8.78294 1.12826 9.0528L1.38316 9.26302L1.39296 8.18355C1.40603 7.19499 1.4093 7.12113 1.44851 7.30862C1.60864 8.08129 2.11842 8.80282 2.83735 9.27438C3.29485 9.57265 3.9811 9.82547 4.49743 9.88797L4.66735 9.90785V8.63238V7.35691L4.75885 7.3285C4.80787 7.31146 6.0758 6.70923 7.57575 5.99054C9.0757 5.27184 10.7815 4.45657 11.3665 4.17818C11.9514 3.89979 12.4579 3.65549 12.4939 3.63277C12.5462 3.60152 11.8959 3.59584 8.49075 3.59868C4.55951 3.59868 4.41246 3.60152 4.17718 3.65549Z" fill='currentColor'/>
<path d="M8.32736 7.36827V8.63806L8.01038 8.79146C7.71627 8.93065 6.9712 9.28574 2.08575 11.6037L0.402802 12.402L4.53664 12.3963L8.67048 12.3878L8.96459 12.3082C10.3142 11.9446 11.3011 10.993 11.5429 9.82547C11.5854 9.61526 11.5887 9.66071 11.592 10.6748C11.5952 11.2657 11.6083 11.7486 11.6214 11.7486C11.6736 11.7486 12.1148 11.3509 12.2913 11.1492C12.6181 10.7714 12.837 10.3425 12.9481 9.8624C13.0167 9.58117 13.0167 8.92497 12.9514 8.64658C12.7913 7.98754 12.4416 7.43077 11.8959 6.97342L11.6116 6.7348L11.5952 7.81426C11.5854 8.40797 11.5756 8.85395 11.5691 8.80566C11.556 8.6409 11.422 8.24037 11.3044 7.99891C10.8371 7.05012 9.85345 6.35415 8.67702 6.13825C8.28488 6.0644 8.32736 5.911 8.32736 7.36827Z" fill='currentColor'/>
<path d="M17.36 12.108C16.784 12.108 16.284 11.984 15.86 11.736C15.436 11.488 15.108 11.136 14.876 10.68C14.644 10.224 14.528 9.688 14.528 9.072C14.528 8.456 14.644 7.924 14.876 7.476C15.108 7.02 15.436 6.668 15.86 6.42C16.284 6.172 16.784 6.048 17.36 6.048C17.936 6.048 18.436 6.172 18.86 6.42C19.284 6.668 19.612 7.02 19.844 7.476C20.076 7.924 20.192 8.456 20.192 9.072C20.192 9.688 20.076 10.224 19.844 10.68C19.612 11.136 19.284 11.488 18.86 11.736C18.436 11.984 17.936 12.108 17.36 12.108ZM17.36 11.244C17.888 11.244 18.308 11.06 18.62 10.692C18.932 10.316 19.088 9.776 19.088 9.072C19.088 8.368 18.932 7.832 18.62 7.464C18.308 7.096 17.888 6.912 17.36 6.912C16.84 6.912 16.42 7.096 16.1 7.464C15.788 7.832 15.632 8.368 15.632 9.072C15.632 9.776 15.788 10.316 16.1 10.692C16.42 11.06 16.84 11.244 17.36 11.244ZM23.6788 12.108C23.2068 12.108 22.8108 12.02 22.4908 11.844C22.1788 11.668 21.9468 11.408 21.7948 11.064C21.6428 10.72 21.5668 10.288 21.5668 9.768V6.156H22.6588V9.768C22.6588 10.096 22.7028 10.368 22.7908 10.584C22.8788 10.8 23.0148 10.96 23.1988 11.064C23.3908 11.168 23.6308 11.22 23.9188 11.22C24.2388 11.22 24.5188 11.148 24.7588 11.004C24.9988 10.86 25.1868 10.656 25.3228 10.392C25.4588 10.128 25.5268 9.82 25.5268 9.468V6.156H26.6188V12H25.5508V10.68H25.7068C25.5468 11.144 25.2868 11.5 24.9268 11.748C24.5748 11.988 24.1588 12.108 23.6788 12.108ZM28.376 12V6.156H29.444V7.428H29.312C29.48 6.972 29.752 6.628 30.128 6.396C30.512 6.164 30.948 6.048 31.436 6.048C31.908 6.048 32.296 6.132 32.6 6.3C32.904 6.468 33.132 6.728 33.284 7.08C33.436 7.424 33.512 7.856 33.512 8.376V12H32.42V8.436C32.42 8.092 32.376 7.808 32.288 7.584C32.2 7.36 32.06 7.196 31.868 7.092C31.684 6.988 31.448 6.936 31.16 6.936C30.824 6.936 30.528 7.008 30.272 7.152C30.016 7.296 29.816 7.5 29.672 7.764C29.536 8.028 29.468 8.336 29.468 8.688V12H28.376ZM37.4752 12.108C36.9632 12.108 36.5112 11.988 36.1192 11.748C35.7352 11.5 35.4352 11.148 35.2192 10.692C35.0032 10.228 34.8952 9.688 34.8952 9.072C34.8952 8.448 34.9992 7.912 35.2072 7.464C35.4232 7.008 35.7232 6.66 36.1072 6.42C36.4992 6.172 36.9552 6.048 37.4752 6.048C37.9952 6.048 38.4432 6.18 38.8192 6.444C39.1952 6.7 39.4472 7.044 39.5752 7.476H39.4432V3.54H40.5352V12H39.4552V10.644H39.5752C39.4552 11.092 39.2032 11.448 38.8192 11.712C38.4432 11.976 37.9952 12.108 37.4752 12.108ZM37.7272 11.244C38.2552 11.244 38.6752 11.06 38.9872 10.692C39.2992 10.316 39.4552 9.776 39.4552 9.072C39.4552 8.368 39.2992 7.832 38.9872 7.464C38.6752 7.096 38.2552 6.912 37.7272 6.912C37.2072 6.912 36.7872 7.096 36.4672 7.464C36.1552 7.832 35.9992 8.368 35.9992 9.072C35.9992 9.776 36.1552 10.316 36.4672 10.692C36.7872 11.06 37.2072 11.244 37.7272 11.244ZM42.0582 12V11.28L45.5262 6.72V6.996H42.0582V6.156H46.5222V6.876L43.0182 11.46V11.16H46.6542V12H42.0582ZM50.2428 12.108C49.6668 12.108 49.1668 11.984 48.7428 11.736C48.3188 11.488 47.9908 11.136 47.7588 10.68C47.5268 10.224 47.4108 9.688 47.4108 9.072C47.4108 8.456 47.5268 7.924 47.7588 7.476C47.9908 7.02 48.3188 6.668 48.7428 6.42C49.1668 6.172 49.6668 6.048 50.2428 6.048C50.8188 6.048 51.3188 6.172 51.7428 6.42C52.1668 6.668 52.4948 7.02 52.7268 7.476C52.9588 7.924 53.0748 8.456 53.0748 9.072C53.0748 9.688 52.9588 10.224 52.7268 10.68C52.4948 11.136 52.1668 11.488 51.7428 11.736C51.3188 11.984 50.8188 12.108 50.2428 12.108ZM50.2428 11.244C50.7708 11.244 51.1908 11.06 51.5028 10.692C51.8148 10.316 51.9708 9.776 51.9708 9.072C51.9708 8.368 51.8148 7.832 51.5028 7.464C51.1908 7.096 50.7708 6.912 50.2428 6.912C49.7228 6.912 49.3028 7.096 48.9828 7.464C48.6708 7.832 48.5148 8.368 48.5148 9.072C48.5148 9.776 48.6708 10.316 48.9828 10.692C49.3028 11.06 49.7228 11.244 50.2428 11.244ZM54.4737 12V6.156H55.5417V7.428H55.4097C55.5777 6.972 55.8497 6.628 56.2257 6.396C56.6097 6.164 57.0457 6.048 57.5337 6.048C58.0057 6.048 58.3937 6.132 58.6977 6.3C59.0017 6.468 59.2297 6.728 59.3817 7.08C59.5337 7.424 59.6097 7.856 59.6097 8.376V12H58.5177V8.436C58.5177 8.092 58.4737 7.808 58.3857 7.584C58.2977 7.36 58.1577 7.196 57.9657 7.092C57.7817 6.988 57.5457 6.936 57.2577 6.936C56.9217 6.936 56.6257 7.008 56.3697 7.152C56.1137 7.296 55.9137 7.5 55.7697 7.764C55.6337 8.028 55.5657 8.336 55.5657 8.688V12H54.4737ZM64.0408 12.108C63.4088 12.108 62.8648 11.988 62.4088 11.748C61.9608 11.5 61.6128 11.152 61.3648 10.704C61.1168 10.248 60.9928 9.712 60.9928 9.096C60.9928 8.488 61.1128 7.956 61.3528 7.5C61.6008 7.044 61.9368 6.688 62.3608 6.432C62.7928 6.176 63.2848 6.048 63.8368 6.048C64.3728 6.048 64.8288 6.164 65.2048 6.396C65.5888 6.628 65.8808 6.96 66.0808 7.392C66.2888 7.816 66.3928 8.328 66.3928 8.928V9.324H61.8448V8.628H65.6728L65.4688 8.796C65.4688 8.172 65.3328 7.692 65.0608 7.356C64.7888 7.012 64.3888 6.84 63.8608 6.84C63.4768 6.84 63.1488 6.932 62.8768 7.116C62.6048 7.292 62.3968 7.544 62.2528 7.872C62.1088 8.192 62.0368 8.564 62.0368 8.988V9.06C62.0368 9.54 62.1128 9.944 62.2648 10.272C62.4248 10.592 62.6528 10.836 62.9488 11.004C63.2448 11.164 63.6088 11.244 64.0408 11.244C64.3848 11.244 64.7168 11.192 65.0368 11.088C65.3648 10.976 65.6728 10.804 65.9608 10.572L66.2968 11.328C66.0328 11.568 65.6928 11.76 65.2768 11.904C64.8688 12.04 64.4568 12.108 64.0408 12.108Z" fill='currentColor'/>
</svg>
