<svg xmlns="http://www.w3.org/2000/svg" version="1.0" preserveAspectRatio="xMidYMid meet" viewBox="330.19 279.08 541.81 238.05">

<g transform="translate(0.000000,799.000000) scale(0.100000,-0.100000)" fill="currentColor" stroke="none">
<path d="M4215 5188 c-203 -16 -400 -71 -531 -149 -262 -154 -376 -502 -269 -821 63 -187 200 -310 430 -386 150 -50 197 -53 745 -61 496 -6 506 -6 550 -28 57 -28 84 -72 84 -138 1 -72 -25 -119 -82 -147 l-47 -23 -662 -3 -662 -3 -51 -62 c-45 -56 -152 -192 -263 -335 -23 -30 -68 -87 -101 -128 -32 -41 -56 -77 -54 -80 10 -9 1809 -4 1885 6 108 14 164 27 267 62 259 87 406 239 465 480 29 119 30 313 1 415 -53 191 -184 320 -395 390 -166 55 -253 63 -790 66 -543 4 -560 6 -611 73 -36 46 -39 139 -7 182 58 78 105 83 742 82 289 -1 531 -1 537 0 6 0 73 81 150 181 76 99 181 235 232 300 51 66 90 124 87 129 -8 13 -1495 11 -1650 -2z"/>
<path d="M6214 5194 c-6 -3 -51 -57 -100 -121 -49 -63 -153 -199 -232 -300 -79 -102 -141 -187 -138 -190 7 -7 1492 -4 1549 4 63 8 56 -8 -27 -65 -35 -24 -75 -52 -88 -62 -12 -10 -66 -52 -119 -92 -188 -142 -378 -290 -770 -599 l-86 -68 0 -103 c-1 -195 -41 -369 -116 -512 -26 -50 -73 -121 -97 -146 -83 -88 -93 -101 -84 -110 8 -8 1423 -14 2365 -10 9 0 46 39 81 88 35 48 108 148 163 222 54 74 115 158 135 185 51 69 70 98 70 107 0 9 -966 8 -1448 -1 -178 -3 -328 -4 -332 -1 -5 3 46 46 113 96 219 164 377 286 672 520 160 126 395 312 522 412 289 228 322 264 354 390 10 43 11 64 0 113 -26 128 -108 205 -250 235 -54 11 -253 14 -1096 13 -566 0 -1035 -3 -1041 -5z"/>
</g>
</svg>